# xmcd CD database file
#
# Track frame offsets:
#	150
#	43882
#	74605
#	97654
#	131105
#	157832
#	191092
#	223567
#	245102
#
# Disc length: 3682 seconds
#
# Revision: 1
# Processed by: cddbd v1.5.2PL0 Copyright (c) Steve Scherf et al.
# Submitted via: CDex 1.70beta2
#
DISCID=830e6009
DTITLE=Collar-Neven, Alleman, Rassinfosse, Desandre-Navarre - Braining Storm
DYEAR=2010
DGENRE=Jazz
TTITLE0=Ame a vagues
TTITLE1=Feria
TTITLE2=Loosing Belgium
TTITLE3=Don't Say It's Impossible
TTITLE4=Andaluciana
TTITLE5=Meetings
TTITLE6=Passeur d'Etoiles
TTITLE7=Strange Bossa
TTITLE8=Chaconne
EXTD=YEAR: 2010
EXTT0=
EXTT1=
EXTT2=
EXTT3=
EXTT4=
EXTT5=
EXTT6=
EXTT7=
EXTT8=
PLAYORDER=
